P3
3 3
255
143 185 89 234 1 152 234 1 152 
143 185 89 143 185 89 143 185 89 
143 185 89 143 185 89 143 185 89 
